<?xml version="1.0" encoding="UTF-8" standalone="no"?>
<!DOCTYPE svg PUBLIC "-//W3C//DTD SVG 1.1//EN"
 "http://www.w3.org/Graphics/SVG/1.1/DTD/svg11.dtd">
<!-- Generated by graphviz version 2.36.0 (20140111.2315)
 -->
<!-- Title: G Pages: 1 -->
<svg width="623pt" height="1724pt"
 viewBox="0.00 0.00 623.00 1724.00" xmlns="http://www.w3.org/2000/svg" xmlns:xlink="http://www.w3.org/1999/xlink">
<g id="graph0" class="graph" transform="scale(1 1) rotate(0) translate(4 1720)">
<title>G</title>
<polygon fill="white" stroke="none" points="-4,4 -4,-1720 619,-1720 619,4 -4,4"/>
<g id="clust1" class="cluster"><title>cluster_Global</title>
<path fill="none" stroke="gray" d="M20,-44C20,-44 595,-44 595,-44 601,-44 607,-50 607,-56 607,-56 607,-1696 607,-1696 607,-1702 601,-1708 595,-1708 595,-1708 20,-1708 20,-1708 14,-1708 8,-1702 8,-1696 8,-1696 8,-56 8,-56 8,-50 14,-44 20,-44"/>
<text text-anchor="middle" x="307.5" y="-1695.2" font-family="Times,serif" font-size="11.00" fill="gray">Global</text>
</g>
<g id="clust2" class="cluster"><title>cluster_\Parse</title>
<path fill="none" stroke="gray" d="M28,-52C28,-52 587,-52 587,-52 593,-52 599,-58 599,-64 599,-64 599,-1668 599,-1668 599,-1674 593,-1680 587,-1680 587,-1680 28,-1680 28,-1680 22,-1680 16,-1674 16,-1668 16,-1668 16,-64 16,-64 16,-58 22,-52 28,-52"/>
<text text-anchor="middle" x="307.5" y="-1667.2" font-family="Times,serif" font-size="11.00" fill="gray">Parse</text>
</g>
<g id="clust3" class="cluster"><title>cluster_\Parse\Internal</title>
<path fill="none" stroke="gray" d="M36,-916C36,-916 579,-916 579,-916 585,-916 591,-922 591,-928 591,-928 591,-1300 591,-1300 591,-1306 585,-1312 579,-1312 579,-1312 36,-1312 36,-1312 30,-1312 24,-1306 24,-1300 24,-1300 24,-928 24,-928 24,-922 30,-916 36,-916"/>
<text text-anchor="middle" x="307.5" y="-1299.2" font-family="Times,serif" font-size="11.00" fill="gray">Internal</text>
</g>
<g id="clust4" class="cluster"><title>cluster_\Parse\HttpClients</title>
<path fill="none" stroke="gray" d="M215,-1418C215,-1418 575,-1418 575,-1418 581,-1418 587,-1424 587,-1430 587,-1430 587,-1640 587,-1640 587,-1646 581,-1652 575,-1652 575,-1652 215,-1652 215,-1652 209,-1652 203,-1646 203,-1640 203,-1640 203,-1430 203,-1430 203,-1424 209,-1418 215,-1418"/>
<text text-anchor="middle" x="395" y="-1639.2" font-family="Times,serif" font-size="11.00" fill="gray">HttpClients</text>
</g>
<!-- \\Parse\\Internal\\AddUniqueOperation -->
<g id="node1" class="node"><title>\\Parse\\Internal\\AddUniqueOperation</title>
<polygon fill="none" stroke="black" points="569,-1284 431,-1284 431,-1248 569,-1248 569,-1284"/>
<text text-anchor="middle" x="500" y="-1263.2" font-family="Courier,monospace" font-size="11.00">AddUniqueOperation</text>
</g>
<!-- \\Parse\\Internal\\FieldOperation -->
<g id="node8" class="node"><title>\\Parse\\Internal\\FieldOperation</title>
<polygon fill="none" stroke="black" points="318.5,-1095 207.5,-1095 207.5,-1059 318.5,-1059 318.5,-1095"/>
<text text-anchor="middle" x="263" y="-1074.2" font-family="Courier,monospace" font-size="11.00">FieldOperation</text>
</g>
<!-- \\Parse\\Internal\\AddUniqueOperation&#45;&gt;\\Parse\\Internal\\FieldOperation -->
<g id="edge1" class="edge"><title>\\Parse\\Internal\\AddUniqueOperation&#45;&gt;\\Parse\\Internal\\FieldOperation</title>
<path fill="none" stroke="black" stroke-dasharray="1,5" d="M430.95,-1249.95C424.86,-1246.91 419.085,-1243.3 414,-1239 360.561,-1193.84 396.17,-1143.29 342,-1099 337.779,-1095.55 333.049,-1092.64 328.06,-1090.18"/>
<polygon fill="none" stroke="black" points="329.426,-1086.96 318.855,-1086.24 326.669,-1093.4 329.426,-1086.96"/>
</g>
<!-- \\Parse\\Internal\\ParseRelationOperation -->
<g id="node2" class="node"><title>\\Parse\\Internal\\ParseRelationOperation</title>
<polygon fill="none" stroke="black" points="582.5,-1230 417.5,-1230 417.5,-1194 582.5,-1194 582.5,-1230"/>
<text text-anchor="middle" x="500" y="-1209.2" font-family="Courier,monospace" font-size="11.00">ParseRelationOperation</text>
</g>
<!-- \\Parse\\Internal\\ParseRelationOperation&#45;&gt;\\Parse\\Internal\\FieldOperation -->
<g id="edge4" class="edge"><title>\\Parse\\Internal\\ParseRelationOperation&#45;&gt;\\Parse\\Internal\\FieldOperation</title>
<path fill="none" stroke="black" stroke-dasharray="1,5" d="M430.128,-1193.94C424.475,-1191.33 419.015,-1188.36 414,-1185 372.597,-1157.24 383.851,-1126.08 342,-1099 337.681,-1096.21 333.005,-1093.76 328.161,-1091.62"/>
<polygon fill="none" stroke="black" points="329.277,-1088.3 318.691,-1087.88 326.703,-1094.81 329.277,-1088.3"/>
</g>
<!-- \\Parse\\Internal\\DeleteOperation -->
<g id="node3" class="node"><title>\\Parse\\Internal\\DeleteOperation</title>
<polygon fill="none" stroke="black" points="559,-1176 441,-1176 441,-1140 559,-1140 559,-1176"/>
<text text-anchor="middle" x="500" y="-1155.2" font-family="Courier,monospace" font-size="11.00">DeleteOperation</text>
</g>
<!-- \\Parse\\Internal\\DeleteOperation&#45;&gt;\\Parse\\Internal\\FieldOperation -->
<g id="edge9" class="edge"><title>\\Parse\\Internal\\DeleteOperation&#45;&gt;\\Parse\\Internal\\FieldOperation</title>
<path fill="none" stroke="black" stroke-dasharray="1,5" d="M440.636,-1140.4C431.659,-1137.43 422.54,-1134.24 414,-1131 381.262,-1118.57 374.936,-1110.89 342,-1099 337.716,-1097.45 333.267,-1095.94 328.765,-1094.49"/>
<polygon fill="none" stroke="black" points="329.455,-1091.04 318.866,-1091.4 327.369,-1097.72 329.455,-1091.04"/>
</g>
<!-- \\Parse\\Internal\\SetOperation -->
<g id="node4" class="node"><title>\\Parse\\Internal\\SetOperation</title>
<polygon fill="none" stroke="black" points="549,-1122 451,-1122 451,-1086 549,-1086 549,-1122"/>
<text text-anchor="middle" x="500" y="-1101.2" font-family="Courier,monospace" font-size="11.00">SetOperation</text>
</g>
<!-- \\Parse\\Internal\\SetOperation&#45;&gt;\\Parse\\Internal\\FieldOperation -->
<g id="edge10" class="edge"><title>\\Parse\\Internal\\SetOperation&#45;&gt;\\Parse\\Internal\\FieldOperation</title>
<path fill="none" stroke="black" stroke-dasharray="1,5" d="M450.877,-1098.47C415.623,-1094.42 367.387,-1088.88 328.752,-1084.44"/>
<polygon fill="none" stroke="black" points="328.975,-1080.94 318.641,-1083.28 328.176,-1087.9 328.975,-1080.94"/>
</g>
<!-- \\Parse\\Internal\\RemoveOperation -->
<g id="node5" class="node"><title>\\Parse\\Internal\\RemoveOperation</title>
<polygon fill="none" stroke="black" points="559,-1068 441,-1068 441,-1032 559,-1032 559,-1068"/>
<text text-anchor="middle" x="500" y="-1047.2" font-family="Courier,monospace" font-size="11.00">RemoveOperation</text>
</g>
<!-- \\Parse\\Internal\\RemoveOperation&#45;&gt;\\Parse\\Internal\\FieldOperation -->
<g id="edge15" class="edge"><title>\\Parse\\Internal\\RemoveOperation&#45;&gt;\\Parse\\Internal\\FieldOperation</title>
<path fill="none" stroke="black" stroke-dasharray="1,5" d="M440.91,-1056.67C406.891,-1060.58 363.855,-1065.53 328.748,-1069.56"/>
<polygon fill="none" stroke="black" points="328.134,-1066.11 318.599,-1070.73 328.933,-1073.06 328.134,-1066.11"/>
</g>
<!-- \\Parse\\Internal\\AddOperation -->
<g id="node6" class="node"><title>\\Parse\\Internal\\AddOperation</title>
<polygon fill="none" stroke="black" points="549,-1014 451,-1014 451,-978 549,-978 549,-1014"/>
<text text-anchor="middle" x="500" y="-993.2" font-family="Courier,monospace" font-size="11.00">AddOperation</text>
</g>
<!-- \\Parse\\Internal\\AddOperation&#45;&gt;\\Parse\\Internal\\FieldOperation -->
<g id="edge21" class="edge"><title>\\Parse\\Internal\\AddOperation&#45;&gt;\\Parse\\Internal\\FieldOperation</title>
<path fill="none" stroke="black" stroke-dasharray="1,5" d="M450.581,-1010.36C438.54,-1014.21 425.725,-1018.55 414,-1023 381.262,-1035.43 374.936,-1043.11 342,-1055 337.716,-1056.55 333.267,-1058.06 328.765,-1059.51"/>
<polygon fill="none" stroke="black" points="327.369,-1056.28 318.866,-1062.6 329.455,-1062.96 327.369,-1056.28"/>
</g>
<!-- \\Parse\\Internal\\IncrementOperation -->
<g id="node7" class="node"><title>\\Parse\\Internal\\IncrementOperation</title>
<polygon fill="none" stroke="black" points="569,-960 431,-960 431,-924 569,-924 569,-960"/>
<text text-anchor="middle" x="500" y="-939.2" font-family="Courier,monospace" font-size="11.00">IncrementOperation</text>
</g>
<!-- \\Parse\\Internal\\IncrementOperation&#45;&gt;\\Parse\\Internal\\FieldOperation -->
<g id="edge24" class="edge"><title>\\Parse\\Internal\\IncrementOperation&#45;&gt;\\Parse\\Internal\\FieldOperation</title>
<path fill="none" stroke="black" stroke-dasharray="1,5" d="M430.999,-959.663C425.037,-962.369 419.273,-965.465 414,-969 372.597,-996.762 383.851,-1027.92 342,-1055 337.681,-1057.79 333.005,-1060.24 328.161,-1062.38"/>
<polygon fill="none" stroke="black" points="326.703,-1059.19 318.691,-1066.12 329.277,-1065.7 326.703,-1059.19"/>
</g>
<!-- \\Parse\\Internal\\Encodable -->
<g id="node9" class="node"><title>\\Parse\\Internal\\Encodable</title>
<polygon fill="none" stroke="black" points="109.5,-960 32.5,-960 32.5,-924 109.5,-924 109.5,-960"/>
<text text-anchor="middle" x="71" y="-939.2" font-family="Courier,monospace" font-size="11.00">Encodable</text>
</g>
<!-- \\Parse\\Internal\\FieldOperation&#45;&gt;\\Parse\\Internal\\Encodable -->
<g id="edge26" class="edge"><title>\\Parse\\Internal\\FieldOperation&#45;&gt;\\Parse\\Internal\\Encodable</title>
<path fill="none" stroke="black" d="M207.226,-1065.45C199.151,-1062.65 191.152,-1059.21 184,-1055 145.94,-1032.58 111.725,-994.073 91.403,-968.328"/>
<polygon fill="none" stroke="black" points="93.9461,-965.895 85.0585,-960.128 88.4098,-970.179 93.9461,-965.895"/>
</g>
<!-- \\Parse\\HttpClients\\ParseStream -->
<g id="node10" class="node"><title>\\Parse\\HttpClients\\ParseStream</title>
<polygon fill="none" stroke="black" points="545.5,-1624 454.5,-1624 454.5,-1588 545.5,-1588 545.5,-1624"/>
<text text-anchor="middle" x="500" y="-1603.2" font-family="Courier,monospace" font-size="11.00">ParseStream</text>
</g>
<!-- \\Parse\\HttpClients\\ParseCurl -->
<g id="node11" class="node"><title>\\Parse\\HttpClients\\ParseCurl</title>
<polygon fill="none" stroke="black" points="538.5,-1570 461.5,-1570 461.5,-1534 538.5,-1534 538.5,-1570"/>
<text text-anchor="middle" x="500" y="-1549.2" font-family="Courier,monospace" font-size="11.00">ParseCurl</text>
</g>
<!-- \\Parse\\HttpClients\\ParseStreamHttpClient -->
<g id="node12" class="node"><title>\\Parse\\HttpClients\\ParseStreamHttpClient</title>
<polygon fill="none" stroke="black" points="579,-1516 421,-1516 421,-1480 579,-1480 579,-1516"/>
<text text-anchor="middle" x="500" y="-1495.2" font-family="Courier,monospace" font-size="11.00">ParseStreamHttpClient</text>
</g>
<!-- \\Parse\\HttpClients\\ParseHttpable -->
<g id="node14" class="node"><title>\\Parse\\HttpClients\\ParseHttpable</title>
<polygon fill="none" stroke="black" points="315,-1490 211,-1490 211,-1454 315,-1454 315,-1490"/>
<text text-anchor="middle" x="263" y="-1469.2" font-family="Courier,monospace" font-size="11.00">ParseHttpable</text>
</g>
<!-- \\Parse\\HttpClients\\ParseStreamHttpClient&#45;&gt;\\Parse\\HttpClients\\ParseHttpable -->
<g id="edge11" class="edge"><title>\\Parse\\HttpClients\\ParseStreamHttpClient&#45;&gt;\\Parse\\HttpClients\\ParseHttpable</title>
<path fill="none" stroke="black" stroke-dasharray="1,5" d="M420.748,-1489.34C389.695,-1485.91 354.509,-1482.01 325.353,-1478.79"/>
<polygon fill="none" stroke="black" points="325.633,-1475.3 315.309,-1477.68 324.863,-1482.26 325.633,-1475.3"/>
</g>
<!-- \\Parse\\HttpClients\\ParseCurlHttpClient -->
<g id="node13" class="node"><title>\\Parse\\HttpClients\\ParseCurlHttpClient</title>
<polygon fill="none" stroke="black" points="572.5,-1462 427.5,-1462 427.5,-1426 572.5,-1426 572.5,-1462"/>
<text text-anchor="middle" x="500" y="-1441.2" font-family="Courier,monospace" font-size="11.00">ParseCurlHttpClient</text>
</g>
<!-- \\Parse\\HttpClients\\ParseCurlHttpClient&#45;&gt;\\Parse\\HttpClients\\ParseHttpable -->
<g id="edge16" class="edge"><title>\\Parse\\HttpClients\\ParseCurlHttpClient&#45;&gt;\\Parse\\HttpClients\\ParseHttpable</title>
<path fill="none" stroke="black" stroke-dasharray="1,5" d="M427.215,-1452.55C394.715,-1456.43 356.686,-1460.96 325.517,-1464.67"/>
<polygon fill="none" stroke="black" points="324.743,-1461.24 315.227,-1465.9 325.571,-1468.19 324.743,-1461.24"/>
</g>
<!-- \\Parse\\ParseClient -->
<g id="node15" class="node"><title>\\Parse\\ParseClient</title>
<polygon fill="none" stroke="black" points="545.5,-1382 454.5,-1382 454.5,-1346 545.5,-1346 545.5,-1382"/>
<text text-anchor="middle" x="500" y="-1361.2" font-family="Courier,monospace" font-size="11.00">ParseClient</text>
</g>
<!-- \\Parse\\ParseUser -->
<g id="node16" class="node"><title>\\Parse\\ParseUser</title>
<polygon fill="none" stroke="black" points="538.5,-474 461.5,-474 461.5,-438 538.5,-438 538.5,-474"/>
<text text-anchor="middle" x="500" y="-453.2" font-family="Courier,monospace" font-size="11.00">ParseUser</text>
</g>
<!-- \\Parse\\ParseObject -->
<g id="node20" class="node"><title>\\Parse\\ParseObject</title>
<polygon fill="none" stroke="black" points="308.5,-854 217.5,-854 217.5,-818 308.5,-818 308.5,-854"/>
<text text-anchor="middle" x="263" y="-833.2" font-family="Courier,monospace" font-size="11.00">ParseObject</text>
</g>
<!-- \\Parse\\ParseUser&#45;&gt;\\Parse\\ParseObject -->
<g id="edge2" class="edge"><title>\\Parse\\ParseUser&#45;&gt;\\Parse\\ParseObject</title>
<path fill="none" stroke="black" d="M461.411,-459.496C444.703,-462.953 426.115,-469.74 414,-483 313.916,-592.544 440.669,-698.18 342,-809 335.564,-816.228 327.095,-821.522 318.114,-825.399"/>
<polygon fill="none" stroke="black" points="316.771,-822.164 308.632,-828.947 319.225,-828.72 316.771,-822.164"/>
</g>
<!-- \\Parse\\ParseInstallation -->
<g id="node17" class="node"><title>\\Parse\\ParseInstallation</title>
<polygon fill="none" stroke="black" points="565.5,-366 434.5,-366 434.5,-330 565.5,-330 565.5,-366"/>
<text text-anchor="middle" x="500" y="-345.2" font-family="Courier,monospace" font-size="11.00">ParseInstallation</text>
</g>
<!-- \\Parse\\ParseInstallation&#45;&gt;\\Parse\\ParseObject -->
<g id="edge3" class="edge"><title>\\Parse\\ParseInstallation&#45;&gt;\\Parse\\ParseObject</title>
<path fill="none" stroke="black" d="M434.396,-359.892C426.679,-363.646 419.576,-368.563 414,-375 285.985,-522.792 468.107,-659.577 342,-809 335.689,-816.478 327.196,-821.887 318.133,-825.8"/>
<polygon fill="none" stroke="black" points="316.706,-822.596 308.55,-829.359 319.143,-829.158 316.706,-822.596"/>
</g>
<!-- \\Parse\\ParseApp -->
<g id="node18" class="node"><title>\\Parse\\ParseApp</title>
<polygon fill="none" stroke="black" points="535.5,-852 464.5,-852 464.5,-816 535.5,-816 535.5,-852"/>
<text text-anchor="middle" x="500" y="-831.2" font-family="Courier,monospace" font-size="11.00">ParseApp</text>
</g>
<!-- \\Parse\\ParseGeoPoint -->
<g id="node19" class="node"><title>\\Parse\\ParseGeoPoint</title>
<polygon fill="none" stroke="black" points="315,-908 211,-908 211,-872 315,-872 315,-908"/>
<text text-anchor="middle" x="263" y="-887.2" font-family="Courier,monospace" font-size="11.00">ParseGeoPoint</text>
</g>
<!-- \\Parse\\ParseGeoPoint&#45;&gt;\\Parse\\Internal\\Encodable -->
<g id="edge5" class="edge"><title>\\Parse\\ParseGeoPoint&#45;&gt;\\Parse\\Internal\\Encodable</title>
<path fill="none" stroke="black" stroke-dasharray="1,5" d="M210.834,-904.003C182.445,-911.773 147.368,-921.373 119.575,-928.979"/>
<polygon fill="none" stroke="black" points="118.413,-925.669 109.691,-931.684 120.261,-932.42 118.413,-925.669"/>
</g>
<!-- \\Parse\\ParseObject&#45;&gt;\\Parse\\Internal\\Encodable -->
<g id="edge6" class="edge"><title>\\Parse\\ParseObject&#45;&gt;\\Parse\\Internal\\Encodable</title>
<path fill="none" stroke="black" stroke-dasharray="1,5" d="M217.373,-849.034C206.217,-852.942 194.456,-857.639 184,-863 154.335,-878.21 123.595,-900.433 101.841,-917.437"/>
<polygon fill="none" stroke="black" points="99.6326,-914.722 93.9651,-923.674 103.978,-920.21 99.6326,-914.722"/>
</g>
<!-- \\Parse\\ParseConfig -->
<g id="node21" class="node"><title>\\Parse\\ParseConfig</title>
<polygon fill="none" stroke="black" points="545.5,-798 454.5,-798 454.5,-762 545.5,-762 545.5,-798"/>
<text text-anchor="middle" x="500" y="-777.2" font-family="Courier,monospace" font-size="11.00">ParseConfig</text>
</g>
<!-- \\Parse\\ParsePush -->
<g id="node22" class="node"><title>\\Parse\\ParsePush</title>
<polygon fill="none" stroke="black" points="538.5,-744 461.5,-744 461.5,-708 538.5,-708 538.5,-744"/>
<text text-anchor="middle" x="500" y="-723.2" font-family="Courier,monospace" font-size="11.00">ParsePush</text>
</g>
<!-- \\Parse\\ParseSession -->
<g id="node23" class="node"><title>\\Parse\\ParseSession</title>
<polygon fill="none" stroke="black" points="549,-906 451,-906 451,-870 549,-870 549,-906"/>
<text text-anchor="middle" x="500" y="-885.2" font-family="Courier,monospace" font-size="11.00">ParseSession</text>
</g>
<!-- \\Parse\\ParseSession&#45;&gt;\\Parse\\ParseObject -->
<g id="edge7" class="edge"><title>\\Parse\\ParseSession&#45;&gt;\\Parse\\ParseObject</title>
<path fill="none" stroke="black" d="M450.877,-877.352C412.502,-868.86 358.745,-856.965 318.733,-848.111"/>
<polygon fill="none" stroke="black" points="319.394,-844.673 308.874,-845.93 317.882,-851.507 319.394,-844.673"/>
</g>
<!-- \\Parse\\ParseAggregateException -->
<g id="node24" class="node"><title>\\Parse\\ParseAggregateException</title>
<polygon fill="none" stroke="black" points="586,-96 414,-96 414,-60 586,-60 586,-96"/>
<text text-anchor="middle" x="500" y="-75.2" font-family="Courier,monospace" font-size="11.00">ParseAggregateException</text>
</g>
<!-- \\Parse\\ParseException -->
<g id="node35" class="node"><title>\\Parse\\ParseException</title>
<polygon fill="none" stroke="black" points="318.5,-96 207.5,-96 207.5,-60 318.5,-60 318.5,-96"/>
<text text-anchor="middle" x="263" y="-75.2" font-family="Courier,monospace" font-size="11.00">ParseException</text>
</g>
<!-- \\Parse\\ParseAggregateException&#45;&gt;\\Parse\\ParseException -->
<g id="edge8" class="edge"><title>\\Parse\\ParseAggregateException&#45;&gt;\\Parse\\ParseException</title>
<path fill="none" stroke="black" d="M413.827,-78C385.765,-78 355.035,-78 328.749,-78"/>
<polygon fill="none" stroke="black" points="328.533,-74.5001 318.533,-78 328.533,-81.5001 328.533,-74.5001"/>
</g>
<!-- \\Parse\\ParseHooks -->
<g id="node25" class="node"><title>\\Parse\\ParseHooks</title>
<polygon fill="none" stroke="black" points="542,-582 458,-582 458,-546 542,-546 542,-582"/>
<text text-anchor="middle" x="500" y="-561.2" font-family="Courier,monospace" font-size="11.00">ParseHooks</text>
</g>
<!-- \\Parse\\ParseQuery -->
<g id="node26" class="node"><title>\\Parse\\ParseQuery</title>
<polygon fill="none" stroke="black" points="542,-528 458,-528 458,-492 542,-492 542,-528"/>
<text text-anchor="middle" x="500" y="-507.2" font-family="Courier,monospace" font-size="11.00">ParseQuery</text>
</g>
<!-- \\Parse\\ParseMemoryStorage -->
<g id="node27" class="node"><title>\\Parse\\ParseMemoryStorage</title>
<polygon fill="none" stroke="black" points="569,-204 431,-204 431,-168 569,-168 569,-204"/>
<text text-anchor="middle" x="500" y="-183.2" font-family="Courier,monospace" font-size="11.00">ParseMemoryStorage</text>
</g>
<!-- \\Parse\\ParseStorageInterface -->
<g id="node40" class="node"><title>\\Parse\\ParseStorageInterface</title>
<polygon fill="none" stroke="black" points="342,-177 184,-177 184,-141 342,-141 342,-177"/>
<text text-anchor="middle" x="263" y="-156.2" font-family="Courier,monospace" font-size="11.00">ParseStorageInterface</text>
</g>
<!-- \\Parse\\ParseMemoryStorage&#45;&gt;\\Parse\\ParseStorageInterface -->
<g id="edge12" class="edge"><title>\\Parse\\ParseMemoryStorage&#45;&gt;\\Parse\\ParseStorageInterface</title>
<path fill="none" stroke="black" stroke-dasharray="1,5" d="M430.713,-178.154C406.307,-175.35 378.444,-172.149 352.575,-169.177"/>
<polygon fill="none" stroke="black" points="352.726,-165.671 342.392,-168.007 351.927,-172.625 352.726,-165.671"/>
</g>
<!-- \\Parse\\ParseCloud -->
<g id="node28" class="node"><title>\\Parse\\ParseCloud</title>
<polygon fill="none" stroke="black" points="542,-420 458,-420 458,-384 542,-384 542,-420"/>
<text text-anchor="middle" x="500" y="-399.2" font-family="Courier,monospace" font-size="11.00">ParseCloud</text>
</g>
<!-- \\Parse\\ParseACL -->
<g id="node29" class="node"><title>\\Parse\\ParseACL</title>
<polygon fill="none" stroke="black" points="298.5,-800 227.5,-800 227.5,-764 298.5,-764 298.5,-800"/>
<text text-anchor="middle" x="263" y="-779.2" font-family="Courier,monospace" font-size="11.00">ParseACL</text>
</g>
<!-- \\Parse\\ParseACL&#45;&gt;\\Parse\\Internal\\Encodable -->
<g id="edge13" class="edge"><title>\\Parse\\ParseACL&#45;&gt;\\Parse\\Internal\\Encodable</title>
<path fill="none" stroke="black" stroke-dasharray="1,5" d="M227.114,-789.733C212.925,-793.946 196.873,-800.154 184,-809 142.514,-837.508 107.554,-885.307 88.2201,-915.17"/>
<polygon fill="none" stroke="black" points="85.1335,-913.502 82.7316,-923.821 91.0442,-917.252 85.1335,-913.502"/>
</g>
<!-- \\Parse\\ParseFile -->
<g id="node30" class="node"><title>\\Parse\\ParseFile</title>
<polygon fill="none" stroke="black" points="301.5,-746 224.5,-746 224.5,-710 301.5,-710 301.5,-746"/>
<text text-anchor="middle" x="263" y="-725.2" font-family="Courier,monospace" font-size="11.00">ParseFile</text>
</g>
<!-- \\Parse\\ParseFile&#45;&gt;\\Parse\\Internal\\Encodable -->
<g id="edge14" class="edge"><title>\\Parse\\ParseFile&#45;&gt;\\Parse\\Internal\\Encodable</title>
<path fill="none" stroke="black" stroke-dasharray="1,5" d="M224.394,-735.314C210.61,-739.386 195.568,-745.603 184,-755 130.791,-798.222 96.8048,-873.909 81.4791,-914.474"/>
<polygon fill="none" stroke="black" points="78.1467,-913.395 77.9845,-923.989 84.7175,-915.808 78.1467,-913.395"/>
</g>
<!-- \\Parse\\ParseRelation -->
<g id="node31" class="node"><title>\\Parse\\ParseRelation</title>
<polygon fill="none" stroke="black" points="315,-692 211,-692 211,-656 315,-656 315,-692"/>
<text text-anchor="middle" x="263" y="-671.2" font-family="Courier,monospace" font-size="11.00">ParseRelation</text>
</g>
<!-- \\Parse\\ParseRelation&#45;&gt;\\Parse\\Internal\\Encodable -->
<g id="edge17" class="edge"><title>\\Parse\\ParseRelation&#45;&gt;\\Parse\\Internal\\Encodable</title>
<path fill="none" stroke="black" stroke-dasharray="1,5" d="M210.907,-685.077C201.177,-688.924 191.657,-694.085 184,-701 118.945,-759.748 88.7637,-864.032 77.524,-913.908"/>
<polygon fill="none" stroke="black" points="74.1016,-913.176 75.4073,-923.69 80.9433,-914.656 74.1016,-913.176"/>
</g>
<!-- \\Parse\\ParseSessionStorage -->
<g id="node32" class="node"><title>\\Parse\\ParseSessionStorage</title>
<polygon fill="none" stroke="black" points="572.5,-150 427.5,-150 427.5,-114 572.5,-114 572.5,-150"/>
<text text-anchor="middle" x="500" y="-129.2" font-family="Courier,monospace" font-size="11.00">ParseSessionStorage</text>
</g>
<!-- \\Parse\\ParseSessionStorage&#45;&gt;\\Parse\\ParseStorageInterface -->
<g id="edge18" class="edge"><title>\\Parse\\ParseSessionStorage&#45;&gt;\\Parse\\ParseStorageInterface</title>
<path fill="none" stroke="black" stroke-dasharray="1,5" d="M427.215,-140.248C403.607,-142.96 377.082,-146.008 352.388,-148.845"/>
<polygon fill="none" stroke="black" points="351.833,-145.385 342.298,-150.004 352.632,-152.34 351.833,-145.385"/>
</g>
<!-- \\Parse\\ParseAnalytics -->
<g id="node33" class="node"><title>\\Parse\\ParseAnalytics</title>
<polygon fill="none" stroke="black" points="555.5,-312 444.5,-312 444.5,-276 555.5,-276 555.5,-312"/>
<text text-anchor="middle" x="500" y="-291.2" font-family="Courier,monospace" font-size="11.00">ParseAnalytics</text>
</g>
<!-- \\Parse\\ParseBytes -->
<g id="node34" class="node"><title>\\Parse\\ParseBytes</title>
<polygon fill="none" stroke="black" points="305,-1410 221,-1410 221,-1374 305,-1374 305,-1410"/>
<text text-anchor="middle" x="263" y="-1389.2" font-family="Courier,monospace" font-size="11.00">ParseBytes</text>
</g>
<!-- \\Parse\\ParseBytes&#45;&gt;\\Parse\\Internal\\Encodable -->
<g id="edge19" class="edge"><title>\\Parse\\ParseBytes&#45;&gt;\\Parse\\Internal\\Encodable</title>
<path fill="none" stroke="black" stroke-dasharray="1,5" d="M220.863,-1385.72C207.503,-1381.79 193.651,-1375.4 184,-1365 129.233,-1306 88.3845,-1054.78 75.9447,-970.039"/>
<polygon fill="none" stroke="black" points="79.4037,-969.503 74.5056,-960.108 72.476,-970.507 79.4037,-969.503"/>
</g>
<!-- \\Exception -->
<g id="node41" class="node"><title>\\Exception</title>
<ellipse fill="none" stroke="black" cx="71" cy="-18" rx="40.8928" ry="18"/>
<text text-anchor="middle" x="71" y="-14.3" font-family="Times,serif" font-size="14.00" fill="gray">xception</text>
</g>
<!-- \\Parse\\ParseException&#45;&gt;\\Exception -->
<g id="edge20" class="edge"><title>\\Parse\\ParseException&#45;&gt;\\Exception</title>
<path fill="none" stroke="black" d="M207.299,-60.726C177.715,-51.3836 141.73,-40.02 114.31,-31.3612"/>
<polygon fill="none" stroke="black" points="115.214,-27.9761 104.624,-28.3022 113.106,-34.6512 115.214,-27.9761"/>
</g>
<!-- \\Parse\\ParseSchema -->
<g id="node36" class="node"><title>\\Parse\\ParseSchema</title>
<polygon fill="none" stroke="black" points="545.5,-258 454.5,-258 454.5,-222 545.5,-222 545.5,-258"/>
<text text-anchor="middle" x="500" y="-237.2" font-family="Courier,monospace" font-size="11.00">ParseSchema</text>
</g>
<!-- \\Parse\\ParsePushStatus -->
<g id="node37" class="node"><title>\\Parse\\ParsePushStatus</title>
<polygon fill="none" stroke="black" points="559,-690 441,-690 441,-654 559,-654 559,-690"/>
<text text-anchor="middle" x="500" y="-669.2" font-family="Courier,monospace" font-size="11.00">ParsePushStatus</text>
</g>
<!-- \\Parse\\ParsePushStatus&#45;&gt;\\Parse\\ParseObject -->
<g id="edge22" class="edge"><title>\\Parse\\ParsePushStatus&#45;&gt;\\Parse\\ParseObject</title>
<path fill="none" stroke="black" d="M440.6,-684.669C431.151,-688.324 421.892,-693.008 414,-699 367.463,-734.333 388.079,-773.072 342,-809 334.939,-814.506 326.678,-818.932 318.223,-822.478"/>
<polygon fill="none" stroke="black" points="316.752,-819.293 308.649,-826.119 319.24,-825.836 316.752,-819.293"/>
</g>
<!-- \\Parse\\ParsePolygon -->
<g id="node38" class="node"><title>\\Parse\\ParsePolygon</title>
<polygon fill="none" stroke="black" points="312,-1356 214,-1356 214,-1320 312,-1320 312,-1356"/>
<text text-anchor="middle" x="263" y="-1335.2" font-family="Courier,monospace" font-size="11.00">ParsePolygon</text>
</g>
<!-- \\Parse\\ParsePolygon&#45;&gt;\\Parse\\Internal\\Encodable -->
<g id="edge23" class="edge"><title>\\Parse\\ParsePolygon&#45;&gt;\\Parse\\Internal\\Encodable</title>
<path fill="none" stroke="black" stroke-dasharray="1,5" d="M213.873,-1332.42C202.915,-1329.13 192.123,-1323.99 184,-1316 85.6361,-1219.2 72.8903,-1039.8 71.7933,-970.42"/>
<polygon fill="none" stroke="black" points="75.2919,-970.229 71.7059,-960.259 68.2921,-970.289 75.2919,-970.229"/>
</g>
<!-- \\Parse\\ParseRole -->
<g id="node39" class="node"><title>\\Parse\\ParseRole</title>
<polygon fill="none" stroke="black" points="538.5,-636 461.5,-636 461.5,-600 538.5,-600 538.5,-636"/>
<text text-anchor="middle" x="500" y="-615.2" font-family="Courier,monospace" font-size="11.00">ParseRole</text>
</g>
<!-- \\Parse\\ParseRole&#45;&gt;\\Parse\\ParseObject -->
<g id="edge25" class="edge"><title>\\Parse\\ParseRole&#45;&gt;\\Parse\\ParseObject</title>
<path fill="none" stroke="black" d="M461.242,-622.912C445.097,-626.67 427.011,-633.302 414,-645 354.805,-698.224 400.506,-755.02 342,-809 335.194,-815.28 326.853,-820.11 318.186,-823.821"/>
<polygon fill="none" stroke="black" points="316.814,-820.599 308.712,-827.426 319.303,-827.141 316.814,-820.599"/>
</g>
</g>
</svg>
